<svg  preserveAspectRatio="none" viewBox="0 0 1280 341" fill="none" xmlns="http://www.w3.org/2000/svg">
<path d="M-121 306.9L-73.5333 267.152C-26.0667 226.978 68.8667 148.122 163.8 124.998C258.733 102.3 353.667 136.4 448.6 164.852C543.533 192.878 638.467 216.322 733.4 216.002C828.333 216.322 923.267 192.878 1018.2 159.098C1113.13 124.678 1208.07 79.922 1255.53 56.7979L1303 34.1001V341H1255.53C1208.07 341 1113.13 341 1018.2 341C923.267 341 828.333 341 733.4 341C638.467 341 543.533 341 448.6 341C353.667 341 258.733 341 163.8 341C68.8667 341 -26.0667 341 -73.5333 341H-121V306.9Z" fill="#2D72FF"/>
</svg>
