<svg width="706" height="610" viewBox="0 0 706 610" fill="none" xmlns="http://www.w3.org/2000/svg">
<rect x="482.439" y="22.1613" width="446.889" height="449.386" rx="59" transform="rotate(26.8588 482.439 22.1613)" fill="#97CEFF"/>
<rect x="167.988" y="72.3666" width="368.887" height="370.949" rx="59" transform="rotate(26.8588 167.988 72.3666)" fill="#76BEFE"/>
<path d="M178.164 359.961C181.14 343.783 184.124 327.227 181.537 310.982C181.121 308.367 180.523 305.685 178.952 303.553C177.382 301.421 174.605 299.974 172.057 300.695C168.532 301.692 167.219 305.96 166.84 309.603C164.971 327.583 171.908 345.181 178.164 359.961Z" fill="#B0DBED"/>
<path d="M178.477 360.357C170.481 355.229 164.522 347.567 158.331 340.364C152.14 333.16 145.243 326.06 136.351 322.719C133.691 321.718 130.231 321.273 128.41 323.456C127.887 324.181 127.557 325.027 127.453 325.914C127.349 326.802 127.473 327.701 127.814 328.527C128.516 330.169 129.509 331.671 130.747 332.958C137.032 340.273 143.873 347.22 151.915 352.542C159.957 357.864 169.303 361.512 178.477 360.357Z" fill="#B0DBED"/>
<path d="M155.559 316.298C156.65 302.222 157.742 288.146 158.833 274.071C158.971 272.296 158.952 270.173 157.482 269.169C156.256 268.333 154.493 268.749 153.401 269.753C152.376 270.836 151.655 272.17 151.311 273.621C149.151 280.619 149.14 288.138 150.242 295.379C151.344 302.619 153.524 309.645 155.559 316.298Z" fill="#B0DBED"/>
<path d="M155.568 315.406C148.755 305.677 141.895 295.891 133.482 287.506C132.091 286.12 130.567 284.723 128.659 284.258C126.752 283.794 124.385 284.632 123.821 286.513C123.351 288.085 124.239 289.715 125.144 291.083C132.466 302.197 143.115 310.71 155.568 315.406Z" fill="#B0DBED"/>
<path d="M141.044 271.514C141.398 259.999 150.62 250.117 150.749 238.597C150.765 237.151 150.509 235.486 149.279 234.726C148.756 234.454 148.166 234.337 147.578 234.387C146.99 234.438 146.429 234.655 145.959 235.012C145.032 235.743 144.288 236.68 143.787 237.75C138.467 247.614 139.279 259.513 141.044 271.514Z" fill="#B0DBED"/>
<path d="M140.772 271.133C136.311 262.78 131.851 254.427 127.391 246.074C126.753 244.691 125.875 243.431 124.799 242.353C124.254 241.82 123.579 241.439 122.841 241.247C122.103 241.055 121.328 241.058 120.593 241.257C119.933 241.533 119.355 241.974 118.915 242.537C118.474 243.101 118.186 243.767 118.077 244.474C117.876 245.892 118.015 247.337 118.482 248.69C120.002 253.855 123.359 258.328 127.327 261.968C131.411 265.568 135.928 268.647 140.772 271.133Z" fill="#B0DBED"/>
<path d="M183.417 368.474C161.571 335.567 146.252 298.769 138.292 260.081" stroke="#152639" stroke-width="0.970138" stroke-miterlimit="10"/>
<path d="M165.481 397.062C152.091 402.368 135.432 397.705 126.742 386.218C116.603 372.814 116.95 352.39 103.742 341.996C98.2439 337.67 90.7927 335.52 86.983 329.652C82.5453 322.818 84.7916 313.796 83.4643 305.756C80.8467 289.898 64.2035 277.513 66.1594 261.561C66.8336 256.061 70.4222 250.515 75.8433 249.37C82.3537 247.995 88.4757 253.29 91.7261 259.096C94.9766 264.902 96.6554 271.626 100.848 276.793C110.953 289.248 132.052 288.679 141.077 301.937C149.087 313.704 143.526 330.542 149.998 343.22C153.615 350.304 160.456 355.044 166.672 360.006C172.888 364.968 179.061 371.046 180.299 378.903C181.536 386.76 174.467 393.501 165.481 397.062Z" fill="#4477B6"/>
<path d="M165.481 397.062C165.481 397.062 121.909 350.583 98.5003 304.976L75.0919 259.369" stroke="#152639" stroke-width="1.65711" stroke-miterlimit="10"/>
<path d="M585.731 301.948C616.569 301.458 646.383 290.805 670.549 271.642L593.047 283.716C626.924 277.365 660.352 263.55 684.419 238.876C657.829 248.336 631.24 257.796 604.651 267.256C633.787 255.704 658.121 234.574 673.646 207.347C649.617 221.535 626.686 237.504 605.044 255.119C620.292 235.571 633.141 214.264 643.313 191.655C617.089 208.532 596.388 232.727 583.771 261.246C587.029 242.005 588.478 222.501 588.098 202.989C575.937 227.023 571.803 255.034 575.605 281.133C567.492 266.102 556.899 252.55 544.274 241.046C543.937 265.651 556.847 302.322 585.731 301.948Z" fill="#4477B6"/>
<path d="M599.745 273.149C613.4 269.619 627.353 265.958 639.051 258.079C640.934 256.81 642.803 255.376 643.894 253.385C644.985 251.394 645.107 248.711 643.626 246.99C641.577 244.61 637.784 245.13 634.814 246.152C620.157 251.193 608.978 262.945 599.745 273.149Z" fill="white"/>
<path d="M599.55 273.536C600.649 265.466 604.455 258.064 607.819 250.647C611.184 243.23 614.214 235.302 613.601 227.181C613.417 224.751 612.513 221.899 610.158 221.272C609.406 221.127 608.629 221.176 607.901 221.415C607.173 221.655 606.519 222.077 606 222.64C604.976 223.779 604.167 225.094 603.613 226.522C600.196 234.051 597.265 241.881 596.032 250.057C594.798 258.234 595.338 266.819 599.55 273.536Z" fill="white"/>
<path d="M625.532 239.798C636.872 235.562 648.212 231.325 659.552 227.089C660.982 226.555 662.626 225.774 662.875 224.268C662.919 223.631 662.755 222.998 662.407 222.464C662.06 221.929 661.547 221.523 660.947 221.305C659.735 220.9 658.437 220.821 657.184 221.077C650.962 221.926 645.111 224.634 639.879 228.106C634.647 231.578 629.97 235.812 625.532 239.798Z" fill="white"/>
<path d="M626.229 239.482C631.333 230.67 636.465 221.8 639.946 212.229C640.521 210.647 641.058 208.957 640.729 207.306C640.401 205.655 638.895 204.117 637.229 204.358C635.836 204.56 634.889 205.839 634.152 207.038C628.155 216.746 625.382 228.102 626.229 239.482Z" fill="white"/>
<path d="M655.114 212.332C664.196 208.448 675.212 212.049 684.217 207.988C685.347 207.478 686.549 206.678 686.696 205.447C686.718 204.941 686.596 204.44 686.345 204.002C686.093 203.563 685.722 203.205 685.274 202.969C684.371 202.511 683.373 202.271 682.36 202.268C672.768 201.694 663.808 206.624 655.114 212.332Z" fill="white"/>
<path d="M655.312 211.983C660.196 205.497 665.08 199.011 669.965 192.525C670.81 191.529 671.473 190.392 671.922 189.166C672.139 188.549 672.192 187.887 672.075 187.244C671.958 186.601 671.675 185.999 671.255 185.499C670.802 185.086 670.25 184.796 669.653 184.657C669.056 184.518 668.433 184.534 667.844 184.705C666.669 185.061 665.596 185.691 664.712 186.543C661.245 189.591 658.979 193.817 657.582 198.217C656.258 202.694 655.495 207.318 655.312 211.983Z" fill="white"/>
<path d="M595.022 280.309C612.72 251.434 635.801 226.228 663.01 206.062" stroke="#152639" stroke-width="0.831834" stroke-miterlimit="10"/>
<path d="M351.613 380.1C332.782 341.826 323.723 299.484 325.244 256.856C325.754 243.038 327.415 229.118 332.146 216.126C336.877 203.133 344.879 191.049 356.232 183.156C360.988 179.85 366.656 177.244 372.403 177.97C377.965 178.673 382.74 182.427 386.147 186.88C393.304 196.238 395.366 208.682 394.413 220.424C393.46 232.166 389.775 243.485 386.44 254.783C374.739 294.424 367.053 336.177 373.102 377.063C366.085 378.926 358.871 379.945 351.613 380.1Z" fill="#8FC7E6"/>
<path d="M363.701 370.034C359.348 342.24 361.237 313.825 369.23 286.851C372.983 274.231 378.12 261.896 385.79 251.195C393.46 240.494 403.802 231.466 416.082 226.72C420.997 224.821 426.298 223.611 431.531 224.222C436.764 224.834 441.925 227.466 444.734 231.924C447.442 236.222 447.691 241.722 446.465 246.653C445.238 251.583 442.676 256.065 440.026 260.4C429.08 278.314 416.159 294.962 405.236 312.89C394.314 330.819 385.298 350.447 383.28 371.343C376.33 371.092 369.381 370.84 363.701 370.034Z" fill="#D7ECF7"/>
<path d="M370.367 369.274C374.897 318.012 396.995 269.888 432.922 233.042" stroke="#152639" stroke-width="1.40176" stroke-miterlimit="10" stroke-linecap="round"/>
<path d="M358.479 376.251C346.1 315.47 349.758 252.513 369.093 193.575" stroke="#152639" stroke-width="1.40176" stroke-miterlimit="10" stroke-linecap="round"/>
<path d="M346.869 211.332C346.95 212.325 346.939 213.324 346.837 214.316C346.758 215.297 346.598 216.262 346.423 217.224C346.232 218.185 345.993 219.136 345.706 220.073C345.425 221.03 345.056 221.958 344.602 222.846C344.519 221.853 344.529 220.854 344.632 219.862C344.722 218.886 344.861 217.916 345.048 216.954C345.251 215.997 345.469 215.043 345.768 214.105C346.049 213.149 346.417 212.22 346.869 211.332Z" fill="#B0DFF2"/>
<path d="M342.201 206.26C342.281 207.657 342.175 209.058 341.886 210.426C341.751 211.106 341.581 211.778 341.379 212.44C341.18 213.117 340.919 213.773 340.599 214.401C340.54 213.698 340.547 212.992 340.62 212.291C340.683 211.601 340.781 210.915 340.914 210.235C341.164 208.859 341.597 207.522 342.201 206.26Z" fill="#B0DFF2"/>
<path d="M351.023 200.098C351.161 200.662 351.214 201.243 351.182 201.822C351.156 202.372 351.08 202.918 350.953 203.454C350.829 203.991 350.654 204.514 350.432 205.018C350.203 205.551 349.896 206.047 349.52 206.49C349.38 205.926 349.326 205.345 349.359 204.766C349.384 204.216 349.461 203.669 349.589 203.133C349.715 202.597 349.89 202.074 350.113 201.57C350.342 201.037 350.648 200.541 351.023 200.098Z" fill="#B0DFF2"/>
<path d="M273.284 82.6372C275.496 77.2587 282.147 74.5378 287.815 75.8408C293.483 77.1439 297.988 81.7824 300.253 87.1389C292.001 85.0709 283.421 84.3159 273.284 82.6372Z" fill="#070C26"/>
<path d="M256.189 82.6372C253.977 77.2587 247.326 74.5378 241.658 75.8408C235.99 77.1439 231.485 81.7824 229.22 87.1389C237.472 85.0709 246.052 84.3159 256.189 82.6372Z" fill="#070C26"/>
<path d="M326.751 108.525C329.298 100.196 331.865 91.7498 332.173 83.0454C332.481 74.341 330.271 65.1996 324.342 58.8191C318.778 52.831 310.682 49.9473 302.777 47.8683C277.411 41.1843 250.804 40.7474 225.232 46.5949C217.931 48.2866 210.271 50.8132 205.665 56.7258C199.126 65.1192 200.962 76.9792 201.486 87.6061C202.131 100.665 200.487 114.673 207.051 125.981C213.04 136.299 224.682 142.002 236.193 145.139C250.986 149.177 266.508 149.767 281.564 146.862C296.621 143.958 310.81 137.638 323.04 128.388C324.659 121.255 325.108 113.897 326.751 108.525Z" fill="#070C26"/>
<path d="M202.662 72.2199C202.662 72.2199 185.584 120.885 169.992 162.436C154.399 203.986 189.795 271.474 270.231 263.047C350.668 254.619 364.069 185.295 353.022 148.699C341.975 112.103 322.171 77.4961 318.495 69.2499C314.819 61.0037 250.661 24.2212 202.662 72.2199Z" fill="#070C26"/>
<path d="M391.276 409.86H144.215L158.845 301.169C158.845 240.798 207.785 206.256 268.156 206.256H268.156C328.527 206.256 377.468 240.798 377.468 301.169L391.276 409.86Z" fill="#F9F5E3"/>
<path d="M230.06 211.267L273.841 341.305C273.841 341.305 306.909 208.914 305.851 209.05C280.166 201.178 252.571 201.249 230.06 211.267Z" fill="#4375B8"/>
<path d="M246.745 167.434C248.83 184.894 248.933 202.533 247.051 220.015C253.098 224.641 260.545 227.061 268.156 226.874C272.047 226.834 275.885 225.968 279.417 224.334C282.949 222.7 286.093 220.336 288.643 217.396C284.16 199.303 282.434 180.53 282.187 161.19C270.386 156.975 256.6 158.805 246.745 167.434Z" fill="#DE7860"/>
<path d="M247.564 178.214C252.598 183.527 258.928 187.548 265.737 188.074C269.287 188.342 272.839 187.568 275.955 185.845C279.072 184.122 281.616 181.525 283.276 178.375C271.553 180.252 259.558 179.857 247.564 178.214Z" fill="#070C26"/>
<path d="M329.26 111.527C327.24 107.536 323.323 104.407 318.877 103.917C317.982 103.822 317.079 103.842 316.189 103.977C311.606 77.7933 296.539 49.793 266.692 47.9464C247.886 45.4194 227.83 62.1427 220.425 76.2589C215.534 84.9459 212.117 94.3837 210.314 104.188C208.514 103.347 206.519 103.009 204.542 103.211C200.097 103.701 196.18 106.83 194.16 110.821C192.242 114.906 191.769 119.522 192.819 123.912C193.575 127.939 195.617 131.612 198.637 134.382C201.718 137.031 206.088 138.328 209.989 137.19C210.637 136.994 211.265 136.735 211.862 136.417C226.271 186.383 294.369 206.757 315.514 138.25C318.898 138.451 322.227 137.315 324.783 135.088C327.803 132.318 329.844 128.645 330.601 124.618C331.65 120.228 331.178 115.612 329.26 111.527Z" fill="#DE7860"/>
<path d="M230.94 141.771C240.77 141.771 248.738 134.23 248.738 124.929C248.738 115.627 240.77 108.087 230.94 108.087C221.11 108.087 213.141 115.627 213.141 124.929C213.141 134.23 221.11 141.771 230.94 141.771Z" fill="#D05555"/>
<path d="M298.642 141.771C308.472 141.771 316.44 134.23 316.44 124.929C316.44 115.627 308.472 108.087 298.642 108.087C288.812 108.087 280.843 115.627 280.843 124.929C280.843 134.23 288.812 141.771 298.642 141.771Z" fill="#D05555"/>
<path d="M274.693 103.055C276.358 99.765 279.049 96.73 282.631 95.8548C286.317 94.9543 290.254 96.5466 293.09 99.0667C295.926 101.587 297.868 104.936 299.951 108.222C301.803 107.014 303.656 105.806 305.508 104.598" stroke="#07092B" stroke-width="1.28404" stroke-miterlimit="10" stroke-linecap="round"/>
<path d="M280.971 104.843C279.488 112.802 291.428 112.575 290.338 104.075C289.787 99.8245 282 96.5754 280.971 104.843Z" fill="#07092B"/>
<path d="M254.889 103.055C253.224 99.765 250.532 96.73 246.951 95.8548C243.265 94.9543 239.327 96.5466 236.492 99.0667C233.655 101.587 231.714 104.936 229.631 108.222C227.779 107.014 225.926 105.806 224.073 104.598" stroke="#07092B" stroke-width="1.28404" stroke-miterlimit="10" stroke-linecap="round"/>
<path d="M248.611 104.843C250.094 112.802 238.153 112.575 239.243 104.075C239.795 99.8245 247.582 96.5754 248.611 104.843Z" fill="#07092B"/>
<path d="M278.487 128.726C275.84 122.47 272.625 116.471 268.882 110.802C267.967 109.417 266.694 107.889 265.042 108.047C263.435 108.2 262.469 109.857 261.805 111.328C259.65 116.106 257.833 121.028 256.366 126.06C255.944 127.176 255.814 128.381 255.989 129.561C256.506 131.771 258.908 132.952 261.11 133.503C266.872 134.948 273.175 134.109 278.487 128.726Z" fill="#BB5237"/>
<path d="M251.388 137.27C256.408 140.901 262.649 142.428 268.779 141.525C274.909 140.621 280.443 137.359 284.202 132.433" stroke="#07092B" stroke-width="1.28404" stroke-miterlimit="10" stroke-linecap="round"/>
<path d="M275.159 336.026L333.696 284.168L294.086 260.286L275.159 336.026Z" fill="#EDE5C8"/>
<path d="M317.534 270.333L351.056 252.915L305.521 209.075L294.086 260.286L317.534 270.333Z" fill="#EDE5C8"/>
<path d="M272.378 337.528L209.77 289.565L246.645 261.645L272.378 337.528Z" fill="#EDE5C8"/>
<path d="M224.385 274.105L189.216 260.314L229.881 211.923L246.645 261.645L224.385 274.105Z" fill="#EDE5C8"/>
<path d="M259.263 45.0115C259.263 45.0115 268.591 94.8803 312.542 105.178C312.542 105.178 333.557 96.0305 316.237 71.467C298.916 46.9036 259.263 45.0115 259.263 45.0115Z" fill="#070C26"/>
<path d="M263.449 45.3976C263.449 45.3976 224.75 103.393 210.503 103.15C196.255 102.907 224.074 57.656 224.074 57.656C224.074 57.656 236.408 45.6448 263.449 45.3976Z" fill="#070C26"/>
<path d="M234.945 87.1389C234.945 87.1389 241.457 78.1332 251.388 85.2746" stroke="#07092B" stroke-width="1.28404" stroke-miterlimit="10" stroke-linecap="round"/>
<path d="M258.914 144.898C258.914 144.898 265.581 150.805 274.056 144.457" stroke="#BB5237" stroke-width="1.28404" stroke-miterlimit="10" stroke-linecap="round"/>
<path d="M285.613 202.733L268.156 226.874L246.745 203.422C246.745 203.422 225.228 222.498 243.956 233.065C262.684 243.633 283.276 234.265 283.276 234.265C283.276 234.265 301.856 211.324 285.613 202.733Z" fill="#4375B8"/>
<path d="M192.297 291.214L182.792 409.86" stroke="#8FC7E6" stroke-width="1.28404" stroke-miterlimit="10"/>
<path d="M351.056 299.372L356.38 409.86" stroke="#8FC7E6" stroke-width="1.28404" stroke-miterlimit="10"/>
<path d="M341.711 311.832C329.774 316.055 317.789 317.206 305.852 321.43C306.63 324.292 307.408 333.163 308.187 336.026C319.613 333.295 331.039 330.565 342.465 327.834C341.922 322.518 341.67 317.176 341.711 311.832Z" fill="#EDE5C8"/>
<path d="M327.26 303.01H322.883C322.503 303.01 322.194 303.319 322.194 303.699V326.62C322.194 327 322.503 327.309 322.883 327.309H327.26C327.641 327.309 327.949 327 327.949 326.62V303.699C327.949 303.319 327.641 303.01 327.26 303.01Z" fill="#070C26"/>
<path d="M590.375 84.706C588.589 71.5596 588.661 58.1848 586.308 45.1279C583.956 32.0712 578.786 18.9028 568.624 10.3727C556.743 0.398536 539.678 -1.62077 524.546 1.79603C513.243 4.34838 502.081 10.1411 496.143 19.4878C491.882 14.3253 483.798 14.012 477.645 16.648C468.466 20.5802 462.29 29.7097 459.693 39.3518C457.097 48.9939 457.616 59.1837 458.628 69.1179C459.464 77.3232 460.859 86.0277 466.357 92.1752C471.918 98.3924 480.535 100.722 488.694 102.458C514.542 107.956 541.289 110.493 567.443 106.703C573.483 105.828 579.585 104.579 584.933 101.637C590.28 98.6948 591.74 94.7601 590.375 84.706Z" fill="#35141F"/>
<path d="M533.193 182.401C449.573 177.973 406.474 235.094 370.427 422.38C370.427 422.38 675.723 421.41 674.793 417.265C643.328 277.019 617.509 186.852 533.193 182.401Z" fill="#F9F5E3"/>
<path d="M498.803 153.186C499.496 169.62 500.188 186.053 500.191 201.142C507.651 207.127 517.104 210.058 526.642 209.344C536.179 208.63 545.09 204.325 551.577 197.296C550.577 181.557 549.577 165.819 548.064 150.183C539.625 146.054 530.808 142.374 521.486 141.206C512.164 140.038 498.295 141.136 498.803 153.186Z" fill="#DC8868"/>
<path d="M499.281 161.806C503.684 173.764 514.04 181.828 524.505 181.448C534.97 181.068 544.94 172.266 548.788 160.009C533.084 166.745 515.432 167.386 499.281 161.806Z" fill="#070C26"/>
<path d="M585.265 72.5081C585.169 72.5081 585.077 72.5231 584.982 72.5251C577.22 -11.9278 472.034 -2.64802 468.007 75.4847C465.514 73.5763 462.467 72.5315 459.327 72.5081C450.294 72.5081 442.972 81.1893 442.972 91.8979C442.972 102.607 450.294 111.288 459.327 111.288C462.02 111.276 464.655 110.503 466.928 109.059C472.61 141.995 498.536 172.887 534.672 167.308C562.159 160.624 575.851 138.785 581.999 110.899C583.069 111.157 584.165 111.287 585.265 111.288C594.298 111.288 601.62 102.607 601.62 91.8979C601.62 81.1893 594.298 72.5081 585.265 72.5081Z" fill="#DC8868"/>
<path d="M559.336 121.322C570.894 121.322 580.264 113.255 580.264 103.305C580.264 93.3542 570.894 85.2877 559.336 85.2877C547.778 85.2877 538.408 93.3542 538.408 103.305C538.408 113.255 547.778 121.322 559.336 121.322Z" fill="#D67455"/>
<path d="M490.183 121.322C501.741 121.322 511.111 113.255 511.111 103.305C511.111 93.3542 501.741 85.2877 490.183 85.2877C478.625 85.2877 469.255 93.3542 469.255 103.305C469.255 113.255 478.625 121.322 490.183 121.322Z" fill="#D67455"/>
<path d="M531.134 304.118C544.182 290.267 557.999 277.161 572.519 264.861C565.511 260.965 559.338 255.729 554.351 249.451C571.238 240.799 588.749 233.364 606.685 225.496C592.6 211.432 576.994 198.978 560.156 188.364" stroke="#8FC7E6" stroke-width="2.24784" stroke-miterlimit="10"/>
<path d="M487.234 63.1531C490.131 58.6819 494.272 54.7348 499.431 53.4072C504.591 52.0795 510.784 54.0052 513.038 59.3413C503.548 58.2047 493.765 59.6174 487.234 63.1531Z" fill="#35141F"/>
<path d="M563.651 320.629L566.154 304.118H613.203V320.629H563.651Z" stroke="#8FC7E6" stroke-width="2.24784" stroke-miterlimit="10"/>
<path d="M561.487 188.247C553.545 224.807 541.919 260.468 526.787 294.684C515.467 275.904 490.376 222.884 481.381 187.211C506.797 175.632 538.155 178.245 561.487 188.247Z" fill="#DC8868"/>
<path d="M480.868 204.333C480.868 204.333 517.484 221.356 562.248 204.333C562.904 208.116 526.528 312.382 526.528 312.382L480.868 204.333Z" fill="white"/>
<path d="M536.522 76.6052C538.429 72.8382 541.511 69.3629 545.612 68.3606C549.833 67.3294 554.342 69.1527 557.589 72.0385C560.837 74.9243 563.06 78.7598 565.445 82.5221" stroke="#07092B" stroke-width="1.47037" stroke-miterlimit="10" stroke-linecap="round"/>
<path d="M543.711 78.6536C542.013 87.7674 555.686 87.507 554.438 77.7734C553.806 72.9064 544.889 69.1857 543.711 78.6536Z" fill="#07092B"/>
<path d="M513.844 76.6052C511.938 72.8382 508.855 69.3629 504.754 68.3606C500.534 67.3294 496.025 69.1527 492.777 72.0385C489.53 74.9243 487.306 78.7598 484.921 82.5221" stroke="#07092B" stroke-width="1.47037" stroke-miterlimit="10" stroke-linecap="round"/>
<path d="M506.655 78.6536C508.353 87.7674 494.68 87.507 495.928 77.7734C496.56 72.9064 505.477 69.1857 506.655 78.6536Z" fill="#07092B"/>
<path d="M522.431 79.8124L513.844 109.646H536.522L522.431 79.8124Z" fill="#BB5237"/>
<path d="M546.32 112.94C524.732 135.892 504.364 115.013 504.364 115.013L546.32 112.94Z" fill="white"/>
<path d="M516.491 127.079C516.491 127.079 522.064 130.597 529.687 127.079" stroke="#BB5237" stroke-width="1.47037" stroke-miterlimit="10" stroke-linecap="round"/>
<path d="M504.364 24.5066C504.364 24.5066 489.084 75.9112 465.753 83.6286C465.753 83.6286 453.434 49.0159 468.752 35.1116C484.071 21.2073 502.976 17.4366 504.364 24.5066Z" fill="#35141F"/>
<path d="M528.917 85.7076L529.523 78.9075C529.604 77.1689 530.35 75.528 531.608 74.3243C532.865 73.1206 534.536 72.4464 536.277 72.4411L560.695 72.3667C562.307 72.3618 563.868 72.9311 565.098 73.9725C566.328 75.014 567.147 76.4595 567.408 78.05L568.659 85.6741" stroke="white" stroke-width="2.63617" stroke-miterlimit="10" stroke-linecap="round"/>
<path d="M475.731 85.2945L475.683 81.2326C475.662 79.4923 476.312 77.8106 477.497 76.5358C478.681 75.2609 480.311 74.4904 482.048 74.3837L506.421 72.8868C508.029 72.788 509.621 73.2654 510.909 74.2334C512.198 75.2014 513.1 76.5968 513.453 78.1694L515.146 85.7076" stroke="white" stroke-width="2.63617" stroke-miterlimit="10" stroke-linecap="round"/>
<path d="M513.954 80.401C516.243 79.186 518.771 78.4888 521.359 78.359C523.947 78.2291 526.531 78.6696 528.93 79.6494" stroke="white" stroke-width="1.31809" stroke-miterlimit="10" stroke-linecap="round"/>
<path d="M516.492 302.31C503.539 288.497 485.487 279.551 470.874 267.109C477.881 263.213 484.054 257.976 489.042 251.699C472.154 243.046 454.643 235.612 436.707 227.744C450.793 213.68 466.399 201.226 483.237 190.611" stroke="#8FC7E6" stroke-width="2.24784" stroke-miterlimit="10"/>
<path d="M420.534 286.59L410.973 422.38" stroke="#8FC7E6" stroke-width="1.47037" stroke-miterlimit="10"/>
<path d="M619.671 286.59L629.233 419.812" stroke="#8FC7E6" stroke-width="1.47037" stroke-miterlimit="10"/>
<path d="M585.265 79.0372C566.817 78.6628 547.938 69.1144 531.573 60.5933C515.207 52.0721 501.407 37.5117 496.711 19.6682C496.711 19.6682 597.159 -40.0395 585.265 79.0372Z" fill="#35141F"/>
</svg>
