<svg width="422" height="550" viewBox="0 0 422 550" fill="none" xmlns="http://www.w3.org/2000/svg">
<rect x="124.733" y="0.81958" width="272.461" height="273.984" rx="136.231" transform="rotate(26.8588 124.733 0.81958)" fill="#97CEFF"/>
<path d="M321.383 549.677C303.295 547.598 285.292 544.91 267.374 541.612C262.572 516.517 259.559 491.113 258.359 465.591C272.308 467.614 286.459 467.833 300.463 466.243C308.608 495.886 316.302 525.653 321.383 549.677Z" fill="#4071B4"/>
<path d="M314.49 547.597C319.683 549.368 325.288 549.377 330.775 549.368C356.16 549.326 381.783 549.258 406.109 543.279C402.448 525.19 398.787 507.101 395.125 489.013C393.418 479.649 391.167 470.394 388.384 461.292C388.268 460.496 387.85 459.776 387.217 459.28C386.584 458.784 385.784 458.55 384.983 458.629C357.993 455.753 330.745 458.157 303.729 460.781C303.182 460.759 302.637 460.854 302.129 461.059C301.621 461.264 301.163 461.574 300.784 461.969C300.152 462.876 290.978 464.525 291.271 465.591C298.914 493.44 305.281 522.932 314.49 547.597Z" fill="#4071B4"/>
<path d="M188.788 377.223C189.923 388.833 194.304 399.889 201.431 409.125C204.035 412.487 207.172 415.698 211.223 416.991C215.275 418.284 220.388 417.056 222.37 413.293C223.177 411.471 223.575 409.495 223.537 407.502C224.079 395.701 223.186 383.877 220.878 372.291C219.925 367.511 218.594 362.525 215.154 359.072C210.389 354.289 202.131 353.825 196.526 357.59C190.922 361.354 187.976 368.744 188.788 377.223Z" fill="#6EAED9"/>
<path d="M174.214 406.991C180.159 409.687 186.959 406.132 192.333 402.427C202.234 395.6 211.49 387.883 219.986 379.372C225.373 373.975 230.703 367.717 231.496 360.133C232.081 354.542 230.097 349.034 228.067 343.792C225.519 337.214 221.413 329.611 214.364 329.323C210.171 329.152 206.437 331.772 203.066 334.274C198.587 337.599 194.107 340.924 189.627 344.249C183.306 348.94 176.903 353.711 172.058 359.916C166.723 366.748 163.445 375.525 164.619 384.113C165.684 391.913 170.523 399.109 174.214 406.991Z" fill="#D67455"/>
<path d="M290.137 253.396C281.664 260.504 272.359 267.326 262.928 274.79C257.841 278.819 253.616 283.828 250.503 289.521C247.389 295.214 245.451 301.474 244.804 307.931C239.458 361.209 242.651 442.991 242.368 472.347C292.745 485.602 357.206 482.218 407.616 469.494C399.655 424.352 396.34 378.392 395.433 333.64C396.821 313.803 391.637 294.061 380.682 277.466C369.773 261.044 353.298 248.393 335.174 243.526C326.181 240.349 316.3 243.251 307.214 246.153C304.132 246.979 301.184 248.241 298.459 249.902C295.822 251.69 293.643 254.416 290.137 253.396Z" fill="#8FC7E6"/>
<path d="M192.15 342.539C207.039 360.518 213.338 389.632 217.385 415.204C232.175 412.141 244.318 394.476 257.008 386.286C263.044 382.39 278.22 364.025 283.602 362.226C278.601 333.799 284.074 332.367 277.295 307.187C274.918 298.36 283.094 266.547 273.958 266.222C270.219 266.089 267.919 268.423 264.612 270.172C249.82 277.998 222.514 310.917 210.422 322.486C204.347 328.298 198.271 334.111 192.15 342.539Z" fill="#8FC7E6"/>
<path d="M261.716 129.847C252.802 136.686 244.91 145.38 241.185 155.979C237.459 166.579 238.518 179.278 245.783 187.848C253.427 170.445 263.219 154.066 274.93 139.094C269.718 136.978 264.138 135.772 261.716 129.847Z" fill="#070C26"/>
<path d="M327.226 173.416C331.43 186.627 336.478 199.553 342.338 212.116C336.597 207.801 331.196 203.051 326.182 197.908C326.238 204.332 326.294 210.756 326.35 217.18C319.092 211.874 312.519 204.881 310.34 196.158C308.16 187.435 311.618 176.888 319.819 173.203C321.322 172.446 323.017 172.157 324.686 172.373C325.598 172.533 326.465 172.889 327.226 173.416Z" fill="#070C26"/>
<path d="M291.217 216.888C291.495 231.587 291.773 246.287 292.018 260.664C299.773 265.485 310.179 263.961 318.018 259.278C325.857 254.594 331.689 247.26 336.831 240.043C330.491 223.264 325.723 205.931 322.588 188.27C314.547 187.912 306.672 190.633 300.567 195.879C297.557 198.475 295.158 201.705 293.542 205.337C291.925 208.969 291.132 212.914 291.217 216.888Z" fill="#DC8868"/>
<path d="M332.194 163.537C327.027 164.101 321.8 163.545 316.867 161.908C311.934 160.271 307.411 157.592 303.606 154.051C296.066 146.94 291.875 136.416 292.557 128.361C293.139 127.269 294.015 126.361 295.087 125.742C296.159 125.123 297.384 124.817 298.621 124.86C301.096 124.984 303.506 125.699 305.648 126.946C319.747 134.158 330.053 148.351 332.194 163.537Z" stroke="#152639" stroke-width="0.80076" stroke-miterlimit="10" stroke-linecap="round"/>
<path d="M333.618 164.372C333.284 154.537 329.565 145.119 323.089 137.709C316.613 130.299 307.778 125.351 298.077 123.702C288.375 122.053 278.401 123.803 269.841 128.657C261.28 133.511 254.658 141.171 251.092 150.343C248.16 157.885 247.509 166.676 251.121 173.916C254.154 179.998 259.893 184.4 266.143 187.069C272.393 189.738 279.184 190.847 285.917 191.768C295.934 193.138 306.417 194.096 315.916 190.633C321.303 188.749 325.937 185.174 329.127 180.442C332.317 175.709 333.892 170.073 333.618 164.372Z" fill="#070C26"/>
<path d="M291.457 225.554C293.214 227.42 295.293 229.241 297.836 229.561C301.341 230.003 304.501 227.49 306.869 224.87C313.074 218.002 317.069 209.419 320.121 200.681C310.932 209.172 301.103 216.972 291.457 225.554Z" fill="black"/>
<path d="M327.888 162.01C325.357 144.962 309.57 131.242 292.394 129.821C275.218 128.4 257.999 138.543 249.69 153.643C241.381 168.742 241.739 187.914 249.338 203.382C254.02 212.914 261.674 221.415 271.683 224.966C286.376 230.177 303.306 223.503 313.949 212.112C326.257 198.939 330.529 179.806 327.888 162.01Z" fill="#DC8868"/>
<path d="M318.654 167.262C320.114 163.483 322.644 160.21 325.934 157.846C329.303 155.643 333.862 154.981 337.39 156.918C340.369 158.554 342.204 161.744 343.158 165.005C344.458 169.209 344.289 173.729 342.679 177.823C341.857 179.849 340.595 181.667 338.984 183.145C337.374 184.623 335.454 185.724 333.365 186.368C331.261 186.968 329.033 186.977 326.924 186.395C324.815 185.814 322.907 184.663 321.408 183.07C319.473 180.701 318.365 177.766 318.252 174.71C318.046 171.684 318.098 168.547 318.654 167.262Z" fill="#DC8868"/>
<path d="M401.823 405.505L305.519 402.858C305.025 402.845 304.533 402.934 304.075 403.119C303.617 403.304 303.202 403.583 302.856 403.936C302.51 404.29 302.241 404.711 302.066 405.173C301.891 405.636 301.813 406.129 301.838 406.623L305.25 475.005C305.297 475.95 305.716 476.838 306.415 477.476C307.113 478.114 308.036 478.45 308.981 478.411L399.617 474.671C400.519 474.633 401.374 474.257 402.012 473.617C402.649 472.976 403.021 472.119 403.054 471.217L405.31 409.221C405.327 408.748 405.25 408.276 405.084 407.832C404.918 407.389 404.665 406.982 404.341 406.637C404.017 406.291 403.628 406.013 403.195 405.819C402.763 405.625 402.297 405.518 401.823 405.505Z" fill="#1A2942"/>
<path d="M307.157 430.172L293.371 431.849L294.908 458.188L308.768 456.236L307.157 430.172Z" fill="#7397BA"/>
<path d="M295.222 438.774C292.704 438.967 289.988 440.062 288.991 442.382C288.58 443.439 288.46 444.586 288.644 445.705C288.884 447.777 289.874 449.688 291.427 451.08C292.207 451.76 293.138 452.244 294.143 452.491C295.148 452.739 296.198 452.742 297.205 452.502L295.222 438.774Z" fill="#7397BA"/>
<path d="M285.909 159.215C286.131 157.162 286.928 155.213 288.207 153.592C289.487 151.972 291.198 150.745 293.144 150.053C295.089 149.362 297.191 149.233 299.206 149.682C301.222 150.131 303.07 151.139 304.538 152.592" stroke="#07092B" stroke-width="0.80076" stroke-miterlimit="10" stroke-linecap="round"/>
<path d="M268.587 160.713C267.355 159.401 265.806 158.431 264.088 157.896C262.371 157.36 260.545 157.279 258.786 157.658C257.028 158.037 255.398 158.865 254.054 160.06C252.71 161.256 251.698 162.779 251.116 164.481" stroke="#07092B" stroke-width="0.80076" stroke-miterlimit="10" stroke-linecap="round"/>
<path d="M261.6 164.194C261.511 164.527 261.463 164.869 261.458 165.213C261.368 169.177 267.255 170.601 268.258 166.439C269.327 162.005 262.671 160.326 261.6 164.194Z" fill="#07092B"/>
<path d="M295.32 154.782C293.517 157.169 294.368 162.166 298.748 160.471C299.413 160.207 299.99 159.76 300.411 159.181C300.833 158.602 301.08 157.916 301.126 157.201C301.147 156.486 300.948 155.781 300.557 155.182C300.166 154.582 299.602 154.116 298.938 153.847C298.321 153.557 297.621 153.492 296.961 153.662C296.3 153.833 295.72 154.229 295.32 154.782Z" fill="#07092B"/>
<path d="M269.363 179.817C269.246 174.855 269.766 169.898 270.911 165.067C271.119 163.894 271.765 162.843 272.717 162.127C275.298 160.292 277.902 162.543 279.587 164.658C282.005 167.694 284.142 170.945 285.97 174.369C286.644 175.34 286.912 176.536 286.717 177.702C286.485 178.224 286.153 178.695 285.737 179.088C285.322 179.48 284.834 179.786 284.299 179.988C280.624 181.881 276.553 182.878 272.419 182.896C271.614 182.867 270.85 182.533 270.282 181.961C269.715 181.389 269.386 180.623 269.363 179.817Z" fill="#BB5237"/>
<path d="M263.637 189.633C269.817 191.332 276.395 190.819 282.237 188.184C288.078 185.548 292.816 180.955 295.631 175.198" stroke="#07092B" stroke-width="0.80076" stroke-miterlimit="10" stroke-linecap="round"/>
<path d="M280.637 199.876C283.708 199.186 286.534 197.673 288.811 195.5" stroke="#BB5237" stroke-width="0.80076" stroke-miterlimit="10"/>
<path d="M330.786 232.969C337.629 240.826 345.979 247.231 355.341 251.805C348.599 261.428 341.712 271.205 332.419 278.394C323.126 285.583 310.887 289.919 299.489 287.067C288.091 284.215 278.661 272.67 279.715 262.512C285.524 254.925 291.718 247.641 298.271 240.687C302.849 237.197 308.109 234.707 313.71 233.378C319.311 232.049 325.128 231.909 330.786 232.969Z" fill="#DC8868"/>
<path d="M357.152 429.31C355.733 443.238 354.887 466.252 354.722 480.43C357.875 487.014 366.259 481.792 373.33 479.974C380.401 478.156 385.026 480.1 385.147 472.781C385.098 462.741 386.346 443.543 387.166 433.712C385.922 431.245 384.13 429.094 381.928 427.426C379.725 425.757 377.17 424.614 374.458 424.084C369.042 423.071 363.19 424.746 357.152 429.31Z" fill="#DC8868"/>
<path d="M361.136 456.088C357.673 453.868 352.804 455.252 349.946 458.211C347.089 461.171 345.822 465.295 344.923 469.309C344.083 473.058 343.479 476.856 343.116 480.681C342.911 482.845 342.819 485.174 343.949 487.031C344.568 487.939 345.395 488.685 346.361 489.208C347.327 489.731 348.404 490.015 349.503 490.037C351.749 490.068 353.965 489.513 355.932 488.426C359.301 480.812 362.706 473.073 363.839 464.825C364.283 461.593 363.922 457.873 361.136 456.088Z" fill="#DC8868"/>
<path d="M365.479 495.323C370.747 495.315 376.098 495.174 381.125 493.599C386.152 492.025 390.89 488.823 393.195 484.086C396.831 476.614 393.67 467.758 390.372 460.132C389.331 457.724 388.168 455.188 385.978 453.743C383.283 451.965 379.769 452.294 376.565 452.691C372.075 453.247 367.264 453.947 363.952 457.029C360.003 460.704 359.351 466.645 359.21 472.037C358.939 476.494 359.314 480.966 360.323 485.316C361.261 488.999 363.024 492.421 365.479 495.323Z" fill="#DC8868"/>
<path d="M183.301 304.719C181.703 323.327 189.476 341.259 195.293 359.006C198.374 368.405 200.96 378.397 199.055 388.103C197.149 397.809 189.506 407.047 179.636 407.684C170.433 408.278 162.085 401.265 158.266 392.871C154.448 384.477 154.224 374.947 154.256 365.725C154.321 346.918 155.181 328.124 155.194 309.823C156.432 306.85 158.006 304.029 159.884 301.413C161.787 298.782 164.533 296.882 167.666 296.028C169.085 295.713 170.553 295.69 171.982 295.961C173.41 296.232 174.768 296.792 175.973 297.605C178.367 299.242 180.034 301.904 183.301 304.719Z" fill="#DC8868"/>
<path d="M168.16 311.08C173.357 310.846 178.354 309.008 182.465 305.82C187.902 301.302 190.408 294.253 191.659 288.549C195.412 281.482 197.689 280.062 201.78 276.083C202.548 275.42 203.192 274.625 203.681 273.735C203.92 273.287 204.037 272.784 204.021 272.276C204.005 271.769 203.856 271.274 203.589 270.842C202.636 269.529 197.619 271.54 196.062 271.995C189.663 273.866 185.683 284.471 181.896 284.861C174.197 284.69 170.597 284.749 165.683 290.679C160.77 296.609 159.621 305.778 168.16 311.08Z" fill="#DC8868"/>
<path d="M184.945 286.765C180.597 284.601 179.892 282.493 174.712 267.828C168.046 264.3 159.94 267.261 153.013 270.245C148.714 272.097 143.941 274.457 142.584 278.937C144.814 282.619 143.911 285.994 144.661 288.859C146.295 295.095 146.492 300.153 148.126 306.389C148.642 308.357 153.937 313.117 155.171 314.735C157.452 317.728 156.804 315.92 160.566 315.979C167.77 316.092 175.164 313.617 180.2 308.465C185.237 303.313 192.983 290.765 184.945 286.765Z" fill="#DC8868"/>
<path d="M166.842 275.799C164.794 258.567 160.499 253.519 157.327 242.379C156.732 240.29 156.175 237.898 157.344 236.067C159.299 235.471 161.038 237.399 162.14 239.119C168.538 248.817 173.11 259.603 175.628 270.946C176.014 272.402 176.11 273.92 175.909 275.413C175.8 276.158 175.498 276.862 175.032 277.454C174.567 278.047 173.955 278.507 173.256 278.79C171.828 279.256 169.994 278.398 166.842 275.799Z" fill="#DC8868"/>
<path d="M344.017 245.031L299.489 287.067L291.457 248.13C291.457 248.13 275.659 261.847 269.864 265.362C255.467 302.578 307.252 322.226 307.252 322.226L360.995 265.506V256.441L344.017 245.031Z" fill="#8FC7E6"/>
<path d="M165.754 268.899C161.086 256.41 155.554 243.546 142.2 238.766C128.157 238.701 129.384 257.312 135.878 265.438C141.374 278.223 142.777 277.188 144.811 289.766C152.876 298.769 170.88 277.692 165.754 268.899Z" fill="#DC8868"/>
<path d="M133.424 259.691C131.658 256.358 132.26 245.471 137.374 251.642C143.909 261.296 146.601 269.354 151.874 278.911" stroke="#BB5237" stroke-width="0.80076" stroke-miterlimit="10" stroke-linecap="round"/>
<path d="M326.435 300.118C326.261 300.117 326.091 300.07 325.942 299.98C325.793 299.89 325.672 299.761 325.591 299.607C325.51 299.452 325.473 299.279 325.484 299.106C325.494 298.932 325.552 298.765 325.651 298.621L349.225 264.469C350.949 261.97 352.903 259.137 353.334 256.015C353.719 253.229 352.484 249.829 349.751 248.96C349.51 248.884 349.309 248.714 349.193 248.49C349.076 248.265 349.054 248.003 349.13 247.762C349.207 247.521 349.376 247.32 349.601 247.203C349.826 247.087 350.088 247.064 350.329 247.141C354.022 248.315 355.718 252.708 355.224 256.277C354.731 259.848 352.64 262.879 350.796 265.553L327.222 299.705C327.134 299.833 327.017 299.937 326.88 300.008C326.743 300.08 326.59 300.118 326.435 300.118Z" fill="#152639"/>
<path d="M241.683 172.169C244.524 169.697 248.079 168.195 251.832 167.88C253.702 167.746 255.575 168.073 257.289 168.83C259.004 169.587 260.506 170.753 261.666 172.225C263.667 174.986 264.05 178.622 263.729 182.017C263.527 184.896 262.659 187.689 261.193 190.175C259.701 192.67 257.31 194.498 254.51 195.281C249.018 196.64 243.334 192.631 240.884 187.532C238.434 182.433 237.485 175.625 241.683 172.169Z" fill="#D67455"/>
<path d="M311.185 155.735C306.844 157.363 303.142 160.344 300.627 164.239C298.296 168.203 297.899 173.482 300.407 177.337C301.458 178.832 302.827 180.077 304.416 180.981C306.005 181.885 307.775 182.426 309.597 182.565C313.258 182.81 316.914 182.014 320.141 180.268C323.425 178.6 326.491 176.088 327.767 172.633C328.432 170.543 328.519 168.313 328.019 166.178C327.519 164.042 326.45 162.082 324.926 160.505C321.947 157.307 317.106 153.269 311.185 155.735Z" fill="#D67455"/>
<path d="M332.174 328.097L331.253 327.849C329.956 332.672 328.287 337.388 326.26 341.953L326.296 341.969C324.661 343.169 323.276 344.677 322.219 346.407C321.652 347.35 321.436 348.463 321.611 349.549C321.663 349.931 321.829 350.288 322.086 350.575C322.344 350.862 322.681 351.065 323.055 351.159C323.128 351.17 323.202 351.176 323.276 351.176C323.611 351.151 323.936 351.05 324.226 350.879C324.515 350.709 324.761 350.474 324.945 350.192C326.685 348.047 327.054 345.181 327.304 342.187L327.33 341.871C329.287 337.407 330.906 332.803 332.174 328.097Z" fill="#152639"/>
<path d="M301.737 320.088C300.444 324.613 299.588 329.251 299.183 333.94L298.953 334.483C298.207 336.242 297.654 338.077 297.302 339.955C297.113 340.572 297.064 341.224 297.159 341.863C297.253 342.501 297.489 343.111 297.85 343.647C298.035 343.865 298.265 344.042 298.523 344.166C298.781 344.29 299.063 344.359 299.349 344.367C299.646 344.37 299.936 344.281 300.18 344.113C300.433 343.923 300.637 343.676 300.775 343.391C301.239 342.384 301.425 341.272 301.316 340.169C301.243 338.359 300.81 336.583 300.043 334.942C300.412 330.002 301.287 325.113 302.654 320.351L301.737 320.088Z" fill="#152639"/>
<path d="M278.437 288.922C265.631 287.526 258.214 309.831 272.045 312.95C291.122 317.718 294.5 293.861 278.437 288.922Z" fill="#152639"/>
<path d="M276.618 297.008C275.491 296.797 274.326 296.93 273.276 297.389C272.226 297.849 271.338 298.614 270.728 299.585C270.149 300.575 269.851 301.704 269.865 302.85C269.879 303.997 270.205 305.118 270.807 306.093C271.101 306.603 271.512 307.037 272.005 307.358C272.538 307.64 273.117 307.824 273.714 307.9C275.531 308.233 277.572 308.432 279.071 307.353C279.716 306.855 280.235 306.213 280.587 305.478C281.029 304.681 281.306 303.803 281.402 302.896C281.497 301.99 281.41 301.074 281.144 300.202C280.547 298.485 278.873 297.498 276.618 297.008Z" fill="#6694C0"/>
<path d="M291.871 129.329C295.956 140.056 302.869 149.476 311.876 156.591C316.38 160.137 321.663 163.154 327.395 163.261C328.672 160.229 329.13 156.915 328.721 153.65C328 150.608 326.519 147.798 324.415 145.484C320.428 140.659 315.469 136.726 309.862 133.943C304.255 131.16 298.125 129.588 291.871 129.329Z" fill="#070C26"/>
<path d="M330.814 332.211C330.515 332.211 330.221 332.141 329.954 332.006C329.687 331.871 329.456 331.676 329.278 331.435C329.101 331.195 328.982 330.916 328.932 330.621C328.882 330.327 328.902 330.025 328.989 329.739C332.67 317.829 332.243 308.008 327.849 303.469C326.807 302.397 325.485 301.638 324.034 301.278C322.583 300.919 321.06 300.972 319.638 301.434C314.041 302.966 306.844 309.689 303.431 323.964C303.372 324.208 303.267 324.438 303.119 324.641C302.972 324.844 302.787 325.016 302.573 325.147C302.359 325.278 302.122 325.366 301.874 325.405C301.627 325.445 301.374 325.435 301.13 325.377C300.886 325.318 300.657 325.213 300.454 325.065C300.251 324.918 300.079 324.733 299.948 324.519C299.816 324.305 299.729 324.068 299.689 323.82C299.65 323.573 299.66 323.32 299.718 323.076C303.519 307.181 311.98 299.573 318.629 297.752C320.712 297.11 322.931 297.057 325.042 297.597C327.153 298.137 329.073 299.25 330.591 300.814C336.05 306.453 336.795 317.406 332.637 330.866C332.517 331.255 332.275 331.596 331.947 331.838C331.619 332.08 331.222 332.211 330.814 332.211Z" fill="#21384F"/>
<path d="M357.786 360.458C348.87 340.164 346.269 317.656 350.322 295.863C351.351 290.398 352.857 284.879 356.078 280.346C359.299 275.812 364.528 272.392 370.086 272.6C379.44 272.951 385.362 282.505 389.399 290.951C401.5 316.266 412.195 342.252 420.03 368.526C422.023 392.439 422.366 416.461 421.059 440.422C399.294 445.176 376.608 443.363 355.875 435.211C353.432 411.308 353.27 387.172 357.786 360.458Z" fill="#8FC7E6"/>
<path d="M359.07 359.997C367.652 353.283 377.652 348.613 388.309 346.343" stroke="white" stroke-width="0.80076" stroke-linejoin="round"/>
<path d="M376.546 340.706C370.315 344.122 364.985 348.97 360.995 354.85" stroke="white" stroke-width="0.80076" stroke-linejoin="round"/>
<path d="M294.097 127.19C289.285 125.018 284.26 123.353 279.104 122.22C273.909 121.093 268.492 121.614 263.606 123.709C255.227 127.682 250.928 137.065 248.504 146.016C248.057 147.663 248.038 150.021 249.697 150.421C250.208 150.454 250.719 150.369 251.191 150.172C251.664 149.975 252.084 149.672 252.42 149.286C256.549 145.758 257.412 145.57 261.541 142.042C257.813 147.304 257.434 149.36 258.108 155.773C258.304 157.63 261.038 161.128 262.9 161.28C264.637 161.422 265.818 159.608 266.587 158.044C269.207 152.716 271.828 147.388 274.448 142.06C272.946 147.5 272.957 153.247 274.479 158.682C274.844 159.978 275.515 161.449 276.84 161.686C278.77 162.03 279.887 159.603 280.301 157.687C281.526 152.005 282.752 146.323 283.978 140.642C283.566 143.699 283.835 146.81 284.765 149.752C285.695 152.694 287.263 155.393 289.358 157.659C291.641 148.773 292.493 139.522 294.097 127.19Z" fill="#070C26"/>
<path d="M300.026 144.312C291.205 140.165 285.909 148.301 285.909 148.301L300.026 144.312Z" fill="black"/>
<path d="M270.301 152.985C263.572 145.933 255.697 151.61 255.697 151.61L270.301 152.985Z" fill="black"/>
<path d="M155.386 290.058C155.386 290.058 173.816 298.41 174.135 305.571" stroke="#BB5237" stroke-width="0.80076" stroke-miterlimit="10" stroke-linecap="round"/>
<path d="M292.968 255.453C292.968 255.453 299.479 263.387 331.079 257.245L299.489 287.067L292.968 255.453Z" fill="white"/>
<path d="M241.702 402.857C241.702 402.731 236.256 335.571 244.18 314.735" stroke="white" stroke-width="0.80076" stroke-linejoin="round"/>
<path d="M349.751 248.961L301.129 295.772H295.224L285.367 255.453" stroke="white" stroke-width="0.80076" stroke-linejoin="round"/>
<path d="M275.884 290.72L275.853 290.72C275.727 290.716 275.604 290.687 275.49 290.636C275.376 290.584 275.273 290.511 275.187 290.419C275.102 290.328 275.035 290.22 274.991 290.103C274.946 289.986 274.926 289.861 274.93 289.736C275.163 282.409 275.405 274.832 277.574 267.61C280.036 259.415 284.755 253.07 290.863 249.741C291.085 249.62 291.346 249.592 291.589 249.663C291.832 249.735 292.036 249.9 292.157 250.122C292.279 250.344 292.306 250.606 292.235 250.848C292.163 251.091 291.998 251.295 291.776 251.417C286.113 254.504 281.718 260.449 279.402 268.159C277.304 275.142 277.067 282.592 276.837 289.796C276.829 290.044 276.725 290.279 276.548 290.451C276.37 290.624 276.132 290.72 275.884 290.72Z" fill="#152639"/>
</svg>
