<svg width="359" height="299" viewBox="0 0 359 299" fill="none" xmlns="http://www.w3.org/2000/svg">
<path d="M314.169 257.442C314.169 257.442 307.595 249.773 313.763 244.902C313.763 244.902 318.269 242.174 321.943 242.396C321.943 242.396 316.737 251.125 318.421 251.993C320.105 252.862 323.52 241.848 323.52 241.848C323.52 241.848 333.774 240.854 337.072 242.44C337.072 242.44 328.307 249.612 330.153 250.039C331.999 250.467 341.466 243.426 341.466 243.426C341.466 243.426 351.009 245.05 350.5 250.871C349.992 256.693 346.703 258.491 345.258 258.336C343.813 258.181 335.359 254.954 335.175 256.138C334.991 257.322 340.08 261.192 343.643 261.373C343.643 261.373 336.915 268.793 332.444 266.651C327.972 264.51 327.591 261.115 324.803 259.842C322.016 258.569 319.637 258.573 320.787 259.871C321.938 261.17 326.983 262.431 328.577 265.251C330.171 268.07 331.601 269.972 326.975 269.276C322.349 268.58 314.829 265.195 314.499 261.319L314.169 257.442Z" fill="#BBD0FF"/>
<path d="M345.812 251.029C345.812 251.029 319.893 250.03 314.169 257.442C314.169 257.442 312.903 261.233 309.007 264.686L308.4 266.34C308.4 266.34 312.892 261.605 314.499 261.319C314.499 261.319 311.985 252.135 345.812 251.029Z" fill="#BBD0FF"/>
<path d="M309.007 264.686C309.007 264.686 303.444 268.8 303.058 276.152L304.068 276.242C304.068 276.242 305.844 268.641 309.056 265.668C312.267 262.696 309.007 264.686 309.007 264.686Z" fill="#BBD0FF"/>
<path d="M291.185 247.797C291.185 247.797 301.642 241.941 296.762 233.994C296.762 233.994 292.858 229.114 288.675 227.859C288.675 227.859 290.906 239.711 288.675 239.99C286.444 240.268 287.141 226.605 287.141 226.605C287.141 226.605 276.127 221.306 271.804 221.725C271.804 221.725 278.636 233.297 276.406 233.018C274.175 232.739 266.506 221.027 266.506 221.027C266.506 221.027 255.213 218.936 253.4 225.629C251.588 232.321 254.516 235.667 256.189 236.086C257.862 236.504 268.598 236.364 268.319 237.759C268.04 239.153 260.79 241.384 256.746 240.129C256.746 240.129 261.208 251.144 267.064 250.586C272.92 250.028 274.733 246.403 278.358 246.124C281.982 245.845 284.632 246.821 282.819 247.797C281.007 248.773 274.872 248.117 271.944 250.606C269.016 253.096 266.646 254.629 272.083 255.745C277.521 256.86 287.281 256.163 289.233 251.98L291.185 247.797Z" fill="#AEC3FF"/>
<path d="M258.559 227.72C258.559 227.72 287.839 237.201 291.185 247.797C291.185 247.797 291.045 252.538 293.973 257.976V260.067C293.973 260.067 290.906 252.956 289.233 251.98C289.233 251.98 295.786 242.778 258.559 227.72Z" fill="#AEC3FF"/>
<path d="M293.973 257.976C293.973 257.976 298.489 264.832 295.915 273.179L294.753 272.867C294.753 272.867 295.881 263.674 293.518 259.05C291.156 254.426 293.973 257.976 293.973 257.976Z" fill="#AEC3FF"/>
<path d="M307.821 239.721C307.821 239.721 294.037 232.002 300.47 221.526C300.47 221.526 305.616 215.093 311.129 213.439C311.129 213.439 308.189 229.062 311.129 229.429C314.07 229.797 313.151 211.785 313.151 211.785C313.151 211.785 327.67 204.801 333.368 205.353C333.368 205.353 324.362 220.607 327.303 220.24C330.244 219.872 340.352 204.434 340.352 204.434C340.352 204.434 355.239 201.677 357.628 210.499C360.018 219.321 356.158 223.732 353.953 224.283C351.747 224.834 337.595 224.65 337.963 226.489C338.33 228.326 347.887 231.267 353.218 229.613C353.218 229.613 347.336 244.133 339.617 243.397C331.898 242.662 329.508 237.884 324.73 237.516C319.952 237.148 316.459 238.435 318.849 239.721C321.238 241.008 329.325 240.143 333.184 243.424C337.044 246.706 340.168 248.727 333 250.198C325.833 251.668 312.967 250.749 310.394 245.235L307.821 239.721Z" fill="#D2E0FF"/>
<path d="M350.828 213.255C350.828 213.255 312.232 225.753 307.821 239.721C307.821 239.721 308.005 245.97 304.145 253.138V255.895C304.145 255.895 308.189 246.522 310.394 245.235C310.394 245.235 301.756 233.105 350.828 213.255Z" fill="#D2E0FF"/>
<path d="M304.145 253.138C304.145 253.138 298.193 262.177 301.587 273.179L303.118 272.768C303.118 272.768 301.632 260.649 304.746 254.554C307.86 248.459 304.145 253.138 304.145 253.138Z" fill="#D2E0FF"/>
<path d="M307.357 297.039C314.518 297.039 321.386 294.194 326.449 289.13C331.513 284.066 334.358 277.199 334.358 270.037H280.355C280.355 277.199 283.2 284.066 288.264 289.13C293.328 294.194 300.195 297.039 307.357 297.039Z" fill="#C0D4FF"/>
<path d="M334.731 298.413H279.983C279.983 297.975 280.069 297.542 280.236 297.138C280.404 296.734 280.649 296.366 280.958 296.057C281.268 295.748 281.635 295.502 282.039 295.335C282.443 295.168 282.876 295.082 283.314 295.082H331.4C332.283 295.082 333.13 295.432 333.755 296.057C334.38 296.682 334.731 297.529 334.731 298.413Z" fill="#C0D4FF"/>
<path d="M334.972 270.037H279.468V270.866H334.972V270.037Z" fill="#86A2E2"/>
<path d="M5.55654 155.989C5.54979 156.016 5.53843 156.03 5.52258 156.03C5.53168 156.009 5.53843 155.993 5.54294 155.982C5.56328 155.941 5.56792 155.941 5.55654 155.989Z" fill="#ABDDDA"/>
<path d="M166.166 0.288696H7.47351C3.55089 0.288696 0.370972 3.46861 0.370972 7.39124V229.627C0.370972 233.549 3.55089 236.729 7.47351 236.729H166.166C170.089 236.729 173.269 233.549 173.269 229.627V7.39124C173.269 3.46861 170.089 0.288696 166.166 0.288696Z" fill="#739AF0"/>
<path d="M165.902 6.6687H7.73828V230.214H165.902V6.6687Z" fill="#F3FAFF"/>
<path d="M54.0298 0.288696V8.34287C54.0293 9.40006 54.237 10.447 54.6412 11.4239C55.0453 12.4008 55.6379 13.2885 56.3851 14.0364C57.1323 14.7843 58.0195 15.3777 58.996 15.7827C59.9725 16.1877 61.0192 16.3964 62.0764 16.3969H105.299C106.356 16.3964 107.403 16.1877 108.379 15.7827C109.356 15.3777 110.243 14.7843 110.99 14.0364C111.737 13.2885 112.33 12.4008 112.734 11.4239C113.138 10.447 113.346 9.40006 113.345 8.34287V0.288696H54.0298Z" fill="#FFA561"/>
<path d="M45.6664 208.385H26.098V210.366H45.6664V208.385Z" fill="#AEC3FF"/>
<path d="M69.7671 208.385H50.1989V210.366H69.7671V208.385Z" fill="#AEC3FF"/>
<path d="M53.2371 212.78H26.098V214.761H53.2371V212.78Z" fill="#AEC3FF"/>
<path d="M153.9 81.1234H21.0674V83.9143H153.9V81.1234Z" fill="#AEC3FF"/>
<path d="M143.484 93.5889H21.0674V96.3798H143.484V93.5889Z" fill="#AEC3FF"/>
<path d="M105.589 87.3561H69.3788V90.147H105.589V87.3561Z" fill="#AEC3FF"/>
<path d="M153.9 87.3561H111.859V90.147H153.9V87.3561Z" fill="#AEC3FF"/>
<path d="M63.9899 87.3561H21.0674V90.147H63.9899V87.3561Z" fill="#AEC3FF"/>
<path d="M105.589 74.0527H69.3788V76.8436H105.589V74.0527Z" fill="#AEC3FF"/>
<path d="M153.9 74.0527H111.859V76.8436H153.9V74.0527Z" fill="#AEC3FF"/>
<path d="M63.9899 74.0527H21.0674V76.8436H63.9899V74.0527Z" fill="#AEC3FF"/>
<path d="M153.9 118.439H21.0674V121.23H153.9V118.439Z" fill="#AEC3FF"/>
<path d="M123.559 130.904H21.0674V133.695H123.559V130.904Z" fill="#AEC3FF"/>
<path d="M105.589 111.368H69.3788V114.159H105.589V111.368Z" fill="#AEC3FF"/>
<path d="M153.9 111.368H111.859V114.159H153.9V111.368Z" fill="#AEC3FF"/>
<path d="M63.9899 111.368H21.0674V114.159H63.9899V111.368Z" fill="#AEC3FF"/>
<path d="M146.479 34.9329H114.596V37.7238H146.479V34.9329Z" fill="#AEC3FF"/>
<path d="M98.7863 40.7914H72.0576V43.5823H98.7863V40.7914Z" fill="#AEC3FF"/>
<path d="M139.519 40.7914H103.249V43.5823H139.519V40.7914Z" fill="#AEC3FF"/>
<path d="M104.66 47.5603H72.0576V50.3512H104.66V47.5603Z" fill="#AEC3FF"/>
<path d="M127.757 47.5603H109.974V50.3512H127.757V47.5603Z" fill="#AEC3FF"/>
<path d="M109.851 34.9329H72.0576V37.7238H109.851V34.9329Z" fill="#AEC3FF"/>
<path d="M85.659 156.752H55.6343V158.56H85.659V156.752Z" fill="#AEC3FF"/>
<path d="M83.3049 164.826H55.6343V166.634H83.3049V164.826Z" fill="#AEC3FF"/>
<path d="M85.659 160.789H77.4744V162.597H85.659V160.789Z" fill="#AEC3FF"/>
<path d="M75.2065 160.789H55.6343V162.597H75.2065V160.789Z" fill="#AEC3FF"/>
<path d="M156.254 156.752H126.229V158.56H156.254V156.752Z" fill="#AEC3FF"/>
<path d="M153.9 164.826H126.229V166.634H153.9V164.826Z" fill="#AEC3FF"/>
<path d="M156.254 160.789H148.069V162.597H156.254V160.789Z" fill="#AEC3FF"/>
<path d="M145.801 160.789H126.229V162.597H145.801V160.789Z" fill="#AEC3FF"/>
<path d="M98.4625 214.71C95.6706 214.704 92.9657 213.738 90.8015 211.974C88.6373 210.21 87.1455 207.756 86.5763 205.022C86.5325 204.806 86.5761 204.582 86.6976 204.398C86.819 204.215 87.0084 204.087 87.2242 204.043C87.4399 203.998 87.6644 204.042 87.8482 204.163C88.0321 204.284 88.1602 204.474 88.2046 204.689C88.6895 207.042 89.9683 209.156 91.8267 210.678C93.6851 212.2 96.0101 213.037 98.4121 213.048C100.814 213.06 103.147 212.246 105.02 210.742C106.893 209.238 108.192 207.136 108.7 204.788C108.722 204.681 108.766 204.58 108.828 204.49C108.89 204.4 108.969 204.324 109.061 204.265C109.153 204.205 109.255 204.165 109.362 204.145C109.47 204.125 109.58 204.127 109.687 204.15C109.793 204.173 109.895 204.217 109.984 204.279C110.074 204.341 110.151 204.42 110.21 204.511C110.269 204.603 110.31 204.706 110.33 204.813C110.349 204.92 110.348 205.03 110.325 205.137C109.73 207.843 108.231 210.266 106.074 212.006C103.918 213.747 101.233 214.7 98.4625 214.71Z" fill="#AEC3FF"/>
<path d="M87.3684 201.248C87.2458 201.248 87.1247 201.221 87.0139 201.169C86.903 201.117 86.805 201.041 86.7269 200.946C86.6489 200.852 86.5927 200.741 86.5624 200.622C86.5321 200.503 86.5285 200.379 86.5517 200.259C87.0796 197.551 88.5144 195.104 90.6198 193.321C92.7251 191.537 95.3752 190.525 98.1331 190.45C100.891 190.375 103.592 191.242 105.791 192.908C107.99 194.574 109.556 196.94 110.23 199.615C110.257 199.721 110.263 199.831 110.247 199.939C110.231 200.047 110.194 200.151 110.138 200.245C110.082 200.339 110.008 200.421 109.92 200.486C109.832 200.551 109.733 200.598 109.627 200.625C109.521 200.651 109.411 200.657 109.303 200.641C109.195 200.625 109.091 200.587 108.997 200.531C108.904 200.475 108.822 200.401 108.757 200.313C108.692 200.225 108.645 200.126 108.618 200.02C108.036 197.711 106.685 195.67 104.787 194.232C102.889 192.795 100.558 192.047 98.1783 192.111C95.7983 192.176 93.5114 193.05 91.6945 194.588C89.8776 196.127 88.6391 198.238 88.1832 200.575C88.1465 200.764 88.0451 200.935 87.8965 201.058C87.7479 201.181 87.5612 201.248 87.3684 201.248Z" fill="#AEC3FF"/>
<path d="M98.4626 219.825C95.0514 219.825 91.7169 218.814 88.8807 216.918C86.0444 215.023 83.8338 212.33 82.5284 209.178C81.223 206.027 80.8815 202.559 81.547 199.213C82.2124 195.868 83.855 192.795 86.2671 190.383C88.6791 187.971 91.7522 186.328 95.0978 185.662C98.4434 184.997 101.911 185.339 105.063 186.644C108.214 187.949 110.908 190.16 112.803 192.996C114.698 195.832 115.71 199.167 115.71 202.578C115.704 207.151 113.886 211.534 110.652 214.768C107.419 218.001 103.035 219.82 98.4626 219.825ZM98.4626 187.694C95.5187 187.694 92.641 188.567 90.1932 190.202C87.7455 191.838 85.8377 194.162 84.7112 196.882C83.5846 199.602 83.2899 202.595 83.8642 205.482C84.4385 208.369 85.8561 211.021 87.9378 213.103C90.0194 215.185 92.6716 216.602 95.5589 217.176C98.4462 217.751 101.439 217.456 104.159 216.329C106.878 215.203 109.203 213.295 110.839 210.847C112.474 208.4 113.347 205.522 113.347 202.578C113.342 198.632 111.773 194.848 108.982 192.058C106.192 189.268 102.409 187.698 98.4626 187.694Z" fill="#AEC3FF"/>
<path d="M101.878 200.418H95.0469V201.511H101.878V200.418Z" fill="#AEC3FF"/>
<path d="M101.878 204.892H95.0469V205.985H101.878V204.892Z" fill="#AEC3FF"/>
<path d="M103.49 202.578H93.4352V203.671H103.49V202.578Z" fill="#AEC3FF"/>
<path d="M49.2086 173.748H28.6782V153.218H49.2086V173.748ZM29.6453 172.781H48.2417V154.185H29.6453V172.781Z" fill="#AFCDFB"/>
<path d="M39.4533 169.621C39.2398 169.621 39.0288 169.574 38.8356 169.483C38.6424 169.392 38.4716 169.26 38.3355 169.095L32.0001 161.432C31.755 161.135 31.6377 160.753 31.6741 160.37C31.7104 159.987 31.8974 159.634 32.1939 159.389C32.4905 159.144 32.8722 159.027 33.2552 159.063C33.6382 159.1 33.991 159.287 34.2361 159.583L39.2605 165.661L48.3497 150.406C48.5467 150.075 48.8668 149.836 49.2398 149.742C49.6127 149.648 50.0079 149.705 50.3384 149.902C50.6689 150.099 50.9076 150.419 51.002 150.792C51.0964 151.165 51.0388 151.56 50.8419 151.891L40.6996 168.913C40.5806 169.113 40.4155 169.281 40.2179 169.404C40.0204 169.526 39.7963 169.6 39.5646 169.617C39.5274 169.62 39.4903 169.621 39.4533 169.621Z" fill="#F99746"/>
<path d="M121.186 173.748H100.656V153.218H121.186V173.748ZM101.623 172.781H120.219V154.185H101.623V172.781Z" fill="#AFCDFB"/>
<path d="M111.431 169.621C111.218 169.621 111.007 169.574 110.814 169.483C110.62 169.392 110.45 169.26 110.313 169.095L103.978 161.431C103.733 161.135 103.616 160.753 103.652 160.37C103.688 159.987 103.875 159.634 104.172 159.389C104.468 159.144 104.85 159.027 105.233 159.063C105.616 159.1 105.969 159.287 106.214 159.583L111.238 165.661L120.328 150.406C120.525 150.075 120.845 149.837 121.218 149.742C121.59 149.648 121.985 149.706 122.316 149.903C122.646 150.099 122.885 150.419 122.979 150.792C123.074 151.165 123.017 151.56 122.82 151.891L112.677 168.913C112.558 169.113 112.393 169.281 112.196 169.404C111.998 169.526 111.774 169.599 111.542 169.617C111.505 169.62 111.468 169.621 111.431 169.621Z" fill="#F99746"/>
<path d="M62.2958 43.3886C62.2958 47.5298 61.0678 51.578 58.7671 55.0213C56.4663 58.4646 53.1962 61.1483 49.3702 62.7331C45.5442 64.3178 41.3343 64.7325 37.2726 63.9246C33.211 63.1166 29.4801 61.1225 26.5519 58.1942C23.6236 55.2659 21.6294 51.535 20.8215 47.4734C20.0136 43.4118 20.4283 39.2018 22.0131 35.3758C23.5978 31.5498 26.2816 28.2797 29.7249 25.979C33.1682 23.6783 37.2164 22.4502 41.3576 22.4503C44.1105 22.4387 46.8384 22.9723 49.384 24.0205C51.9296 25.0686 54.2424 26.6105 56.189 28.5571C58.1356 30.5038 59.6775 32.8166 60.7256 35.3622C61.7738 37.9078 62.3074 40.6357 62.2958 43.3886Z" fill="#FFA561"/>
<path d="M41.4055 27.2797C41.4055 27.2797 33.5336 26.6615 29.3889 35.066C25.6828 42.581 24.2648 43.0988 25.8626 45.4808C27.4603 47.8628 42.7991 52.1761 54.1435 47.2709C54.1435 47.2709 58.256 45.4808 56.6791 42.3659C55.1022 39.2509 50.8769 26.4857 41.4055 27.2797Z" fill="#2B478B"/>
<path d="M49.8291 41.3959C50.9337 36.7169 48.0361 32.0284 43.3571 30.9239C38.6781 29.8193 33.9896 32.717 32.885 37.396C31.7804 42.075 34.6781 46.7635 39.3571 47.868C44.0361 48.9726 48.7246 46.0749 49.8291 41.3959Z" fill="#FFC9A4"/>
<path d="M56.2717 58.0803C54.3239 60.0579 52.0022 61.6284 49.4418 62.7004C46.8813 63.7724 44.1332 64.3245 41.3574 64.3245C38.5816 64.3245 35.8335 63.7724 33.2731 62.7004C30.7126 61.6284 28.3909 60.0579 26.4431 58.0803C27.208 54.6961 29.101 51.6727 31.8113 49.5066C34.5216 47.3405 37.8879 46.1606 41.3574 46.1606C44.8269 46.1606 48.1933 47.3405 50.9036 49.5066C53.6138 51.6727 55.5069 54.6961 56.2717 58.0803Z" fill="#FFC9A4"/>
<path d="M42.0716 30.249C42.0716 30.249 39.4066 37.2312 32.6523 36.9659C32.6523 36.9659 31.7311 28.9233 42.0716 30.249Z" fill="#2B478B"/>
<path d="M40.6216 30.249C40.6216 30.249 43.2867 37.2312 50.041 36.9659C50.041 36.9659 50.9622 28.9233 40.6216 30.249Z" fill="#2B478B"/>
<path d="M239.073 170.054C237.434 174.103 230.132 188.933 230.132 188.933L226.405 186.371C226.405 186.371 231.875 169.184 231.58 166.724C231.285 164.264 229.36 153.77 229.36 153.77L228.843 130.909C228.843 130.909 234.154 133.003 235.18 138.691C236.204 144.38 240.715 166.005 239.073 170.054Z" fill="#FFB27D"/>
<path d="M231.58 143.916L224.668 174.593L200.161 173.457C200.161 173.457 198.431 151.965 201.972 143.56C205.513 135.154 207.739 131.918 207.739 131.918C207.739 131.918 211.805 127.366 228.845 130.908L231.58 143.916Z" fill="#FFB27D"/>
<path d="M197.354 221.78C197.36 224.632 199.666 240.136 200.825 279.416C200.848 280.205 201.597 280.805 203.891 280.158C207.074 279.259 207.45 279.828 207.45 279.828C207.45 279.828 211.115 254.849 211.842 229.836C212.206 217.291 197.343 215.538 197.354 221.78Z" fill="#FFB27D"/>
<path d="M223.104 131.023C222.677 128.856 222.55 123.331 223.133 119.525L222.564 119.551L212.991 120.002C212.991 120.002 212.764 122.959 212.358 125.717C212.355 125.74 212.352 125.763 212.348 125.785C212.001 128.181 211.692 130.104 211.846 130.794C212.387 133.224 223.458 132.823 223.104 131.023Z" fill="#FFB27D"/>
<path d="M212.991 120.002C212.991 120.002 212.764 122.959 212.358 125.717C217.583 126.349 221.043 122.014 222.564 119.551L212.991 120.002Z" fill="#E8945B"/>
<path d="M210.862 122.352C210.862 122.352 223.142 124.397 224.298 116.73C225.453 109.063 227.817 104.163 220.025 102.534C212.234 100.904 210.266 103.599 209.258 106.065C208.25 108.53 207.698 121.622 210.862 122.352Z" fill="#FFB27D"/>
<path d="M214.475 221.942C214.408 224.793 216.321 240.351 216.483 279.648C216.487 280.436 217.219 281.056 219.529 280.467C222.734 279.649 223.096 280.228 223.096 280.228C223.096 280.228 227.393 255.35 228.754 230.363C229.437 217.831 214.623 215.702 214.475 221.942Z" fill="#FFB27D"/>
<path d="M224.28 288.33C224.166 290.909 221.552 290.41 217.418 290.052C213.283 289.695 214.813 290.463 209.045 290.711C203.278 290.96 202.3 290.016 201.996 289.2C201.726 288.476 202.89 287.96 205.842 287.149C206.213 287.048 214.024 283.834 215.68 281.755C217.912 278.953 217.7 258.738 217.7 258.738L223.598 266.477C223.598 266.477 223.364 275.698 223.096 280.228C222.986 282.083 224.453 284.27 224.819 285.871C225.015 286.741 224.321 287.421 224.28 288.33Z" fill="#FFB27D"/>
<path d="M217.291 290.895C213.156 290.538 214.282 291.549 208.515 291.797C202.747 292.046 200.703 290.197 200.399 289.381C200.129 288.657 202.89 287.96 205.842 287.149L205.879 287.203C208.549 288.386 211.49 288.825 214.39 288.471C218.251 287.97 222.156 286.238 224.819 285.871C225.055 286.741 225.173 287.639 225.17 288.54C225.057 291.119 221.426 291.253 217.291 290.895Z" fill="#E5803C"/>
<path d="M208.839 287.898C208.79 290.479 206.165 290.047 202.023 289.794C197.881 289.541 199.429 290.27 193.67 290.665C187.911 291.06 186.909 290.141 186.585 289.333C186.296 288.615 187.447 288.07 190.377 287.185C190.746 287.075 198.473 283.664 200.076 281.543C202.236 278.686 201.511 258.482 201.511 258.482L207.604 266.069C207.604 266.069 207.604 275.293 207.45 279.829C207.387 281.686 208.91 283.835 209.316 285.426C209.534 286.291 208.857 286.988 208.839 287.898Z" fill="#FFB27D"/>
<path d="M201.918 290.64C197.775 290.387 198.927 291.369 193.167 291.764C187.408 292.159 185.317 290.363 184.993 289.554C184.705 288.837 187.447 288.07 190.377 287.185L190.416 287.238C193.115 288.353 196.066 288.717 198.956 288.29C202.804 287.691 206.663 285.861 209.316 285.426C209.574 286.29 209.715 287.184 209.735 288.086C209.687 290.667 206.061 290.893 201.918 290.64Z" fill="#F49656"/>
<path d="M208.819 174.593C208.819 174.593 205.682 167.687 206.071 162.183C206.584 154.936 208.47 144.277 205.95 145.302C200.313 147.595 199.993 172.77 199.993 172.77L208.819 174.593Z" fill="#F4A671"/>
<path d="M199.994 172.77C199.994 172.77 193.21 211.651 190.542 234.032C187.875 256.413 185.859 265.073 185.859 265.073C185.859 265.073 203.021 268.83 216.328 267.409C229.635 265.988 231.534 271.038 241.498 265.344C241.498 265.344 233.654 244.219 235.454 220.888C238.01 187.769 225.571 172.305 225.571 172.305C225.571 172.305 220.6 174.649 199.994 172.77Z" fill="#F99746"/>
<path d="M217.461 170.515C217.37 170.515 217.28 170.488 217.204 170.437C217.128 170.386 217.069 170.314 217.035 170.229C216.952 170.028 215.032 165.242 216.571 160.002C216.605 159.885 216.685 159.786 216.792 159.728C216.9 159.669 217.026 159.655 217.143 159.69C217.261 159.724 217.359 159.804 217.418 159.911C217.477 160.019 217.49 160.145 217.456 160.262C216.011 165.183 217.869 169.833 217.888 169.879C217.917 169.949 217.928 170.025 217.92 170.101C217.912 170.176 217.886 170.248 217.844 170.311C217.802 170.374 217.745 170.425 217.678 170.461C217.611 170.496 217.537 170.515 217.461 170.515Z" fill="#F4A671"/>
<path d="M188.802 196.395C188.193 198.222 184.599 200.802 184.599 202.852C184.599 204.902 185.701 210.271 186.412 210.282C189.084 210.325 188.238 206.49 189.263 205.26C190.288 204.03 192.44 203.313 192.543 202.288C192.645 201.263 193.004 196.19 193.004 196.19C193.004 196.19 189.365 194.704 188.802 196.395Z" fill="#FFB27D"/>
<path d="M192.543 202.288C192.543 202.288 190.083 207.413 190.006 207.105C189.929 206.798 190.006 203.877 190.006 203.877L192.543 202.288Z" fill="#FFB27D"/>
<path d="M225.571 172.306C225.571 172.306 222.368 176.818 201.921 172.898V170.669C201.921 170.669 219.802 173.385 225.691 170.054L225.571 172.306Z" fill="#2B478B"/>
<path d="M208.124 129.982C208.124 129.982 200.9 131.872 198.795 138.128C196.853 143.896 196.818 165.211 195.17 169.157C193.863 172.287 188.443 197.118 188.443 197.118L193.004 196.19C193.004 196.19 202.613 173.744 203.996 168.978C205.38 164.212 204.38 152.989 206.533 148.992C208.685 144.995 208.124 129.982 208.124 129.982Z" fill="#FFB27D"/>
<path d="M231.58 166.724C231.285 164.264 229.36 153.77 229.36 153.77C229.36 153.77 231.079 147.464 232.106 147.562C233.13 147.66 232.696 165.494 231.58 166.724Z" fill="#F4A671"/>
<path d="M213.678 101.025C213.678 101.025 208.839 101.486 207.148 104.561C205.457 107.636 207.085 110.865 211.805 113.632C216.526 116.399 216.358 123.126 212.589 123.991C208.82 124.855 201.731 128.591 203.919 131.916C206.106 135.24 213.313 133.072 211.805 137.82C208.941 146.839 221.907 149.868 226.98 147.562C232.054 145.256 232.796 138.892 236.819 138.947C244.199 139.05 241.9 127.594 237.281 122.318C231.022 115.169 237.127 112.318 232.493 106.714C228.128 101.435 221.592 97.9505 213.678 101.025Z" fill="#163560"/>
</svg>
