<svg width="35" height="33" viewBox="0 0 35 33" fill="none" xmlns="http://www.w3.org/2000/svg">
<g clip-path="url(#clip0_13_381)">
<path d="M34.0989 0.262756L19.1202 11.3459L21.9057 4.8143L34.0989 0.262756Z" fill="#E17726"/>
<path d="M0.84413 0.275848L13.0048 4.81512L15.6496 11.4324L0.84413 0.275848ZM28.0709 23.8336L34.6913 23.9596L32.3776 31.8196L24.2992 29.5955L28.0709 23.8336ZM6.83686 23.8336L10.5945 29.5955L2.52981 31.8198L0.230103 23.9596L6.83686 23.8336Z" fill="#E27625"/>
<path d="M15.2901 9.74684L15.5606 18.4852L7.46484 18.1169L9.76768 14.6427L9.79687 14.6093L15.2901 9.74684ZM19.534 9.64934L25.1111 14.6096L25.14 14.6428L27.4429 18.117L19.3489 18.4852L19.534 9.64934ZM10.8317 23.859L15.2522 27.3033L10.1172 29.7824L10.8317 23.859ZM24.0771 23.8584L24.7768 29.7826L19.6561 27.303L24.0771 23.8584Z" fill="#E27625"/>
<path d="M19.7691 26.9786L24.9654 29.4947L20.1318 31.7918L20.182 30.2736L19.7691 26.9786ZM15.1374 26.9797L14.7407 30.2488L14.7733 31.7901L9.92847 29.4947L15.1374 26.9797Z" fill="#D5BFB2"/>
<path d="M13.637 19.6257L14.9948 22.4794L10.3718 21.1251L13.637 19.6257ZM21.271 19.6259L24.5516 21.1251L19.9135 22.479L21.271 19.6259Z" fill="#233447"/>
<path d="M11.185 23.8298L10.4378 29.9714L6.4325 23.9641L11.185 23.8298ZM23.7233 23.8299L28.476 23.9641L24.4557 29.9717L23.7233 23.8299ZM27.5599 17.7696L24.1011 21.2946L21.4344 20.0759L20.1576 22.7601L19.3207 18.1444L27.5599 17.7696ZM7.34638 17.7696L15.5873 18.1444L14.7502 22.7601L13.4731 20.0764L10.8205 21.2947L7.34638 17.7696Z" fill="#CC6228"/>
<path d="M7.1134 17.0462L11.0266 21.0171L11.1622 24.9373L7.1134 17.0462ZM27.7987 17.0391L23.7426 24.9442L23.8953 21.0171L27.7987 17.0391ZM15.396 17.2881L15.5535 18.2794L15.9427 20.749L15.6925 28.334L14.5095 22.2408L14.5091 22.1778L15.396 17.2881ZM19.5101 17.2743L20.3993 22.1778L20.3989 22.2408L19.213 28.3493L19.1661 26.8214L18.981 20.704L19.5101 17.2743Z" fill="#E27525"/>
<path d="M24.2431 20.8593L24.1107 24.2653L19.9826 27.4816L19.1481 26.892L20.0835 22.0737L24.2431 20.8593ZM10.6793 20.8593L14.8245 22.0737L15.7599 26.892L14.9254 27.4816L10.7971 24.265L10.6793 20.8593Z" fill="#F5841F"/>
<path d="M9.13855 28.7426L14.42 31.245L14.3977 30.1764L14.8396 29.7884H20.0668L20.5247 30.175L20.4909 31.2428L25.739 28.7488L23.1852 30.8591L20.0974 32.9799H14.7972L11.7114 30.8504L9.13855 28.7426Z" fill="#C0AC9D"/>
<path d="M19.3909 26.6455L20.1376 27.1731L20.5752 30.6644L19.9419 30.1297H14.9681L14.3468 30.6752L14.7701 27.1733L15.517 26.6455H19.3909Z" fill="#161616"/>
<path d="M33.11 0.569565L34.9081 5.96354L33.7851 11.4175L34.5847 12.0343L33.5027 12.8598L34.316 13.4879L33.2391 14.4684L33.9002 14.9472L32.1458 16.9961L24.9501 14.901L24.8878 14.8675L19.7025 10.4934L33.11 0.569565ZM1.79804 0.569565L15.2057 10.4934L10.0202 14.8675L9.95793 14.901L2.76224 16.9961L1.00783 14.9472L1.66836 14.4688L0.59221 13.4879L1.40382 12.8605L0.305582 12.0326L1.13533 11.4155L0 5.96381L1.79804 0.569565Z" fill="#763E1A"/>
<path d="M24.5982 14.4428L32.2225 16.6626L34.6994 24.2968H28.1645L23.6619 24.3535L26.9365 17.9708L24.5982 14.4428ZM10.3099 14.4428L7.97118 17.9708L11.2461 24.3535L6.74558 24.2968H0.222412L2.68548 16.6627L10.3099 14.4428ZM22.279 4.77789L20.1465 10.5376L19.6939 18.3183L19.5207 20.7571L19.5069 26.987H15.401L15.3876 20.7688L15.2139 18.3162L14.7612 10.5376L12.629 4.77789H22.279Z" fill="#F5841F"/>
</g>
<defs>
<clipPath id="clip0_13_381">
<rect width="34.9081" height="32.7263" fill="white" transform="translate(0 0.262756)"/>
</clipPath>
</defs>
</svg>
